<?xml version="1.0" encoding="utf-8"?>
<!-- Generator: Adobe Illustrator 25.4.1, SVG Export Plug-In . SVG Version: 6.00 Build 0)  -->
<svg version="1.1" id="Calque_1" xmlns="http://www.w3.org/2000/svg" xmlns:xlink="http://www.w3.org/1999/xlink" x="0px" y="0px"
	 viewBox="0 0 70 70" style="enable-background:new 0 0 70 70;" xml:space="preserve">
<style type="text/css">
	.st0{fill:#F8B133;}
	.st1{fill-rule:evenodd;clip-rule:evenodd;fill:#FFFFFF;}
</style>
<g>
	
		<ellipse transform="matrix(0.1608 -0.987 0.987 0.1608 -4.6772 63.6775)" class="st0" cx="35.11" cy="34.59" rx="35.22" ry="35.22"/>
	<path class="st1" d="M39.64,21.51c1.28-0.04,2.56-0.01,3.85-0.01c0.16,0,0.31,0,0.53,0v-6.66c-0.68-0.07-1.4-0.17-2.12-0.2
		c-1.31-0.06-2.63-0.12-3.95-0.09c-2.01,0.04-3.91,0.53-5.57,1.72c-1.9,1.37-2.95,3.29-3.35,5.56c-0.16,0.94-0.21,1.91-0.23,2.86
		c-0.04,1.5-0.01,2.99-0.01,4.49v0.56h-6.38v7.44h6.34v18.71h7.75V37.2h6.32c0.32-2.47,0.64-4.93,0.97-7.48c-0.51,0-0.96,0-1.42,0
		c-1.8,0.01-5.92,0-5.92,0s0.02-3.69,0.06-5.29C36.58,22.24,37.88,21.57,39.64,21.51z"/>
</g>
</svg>
