<?xml version="1.0" encoding="utf-8"?>
<!-- Generator: Adobe Illustrator 25.4.1, SVG Export Plug-In . SVG Version: 6.00 Build 0)  -->
<svg version="1.1" id="Calque_1" xmlns="http://www.w3.org/2000/svg" xmlns:xlink="http://www.w3.org/1999/xlink" x="0px" y="0px"
	 viewBox="0 0 70 70" style="enable-background:new 0 0 70 70;" xml:space="preserve">
<style type="text/css">
	.st0{fill:#F8B133;}
	.st1{fill:#FFFFFF;}
</style>
<g>
	<ellipse transform="matrix(0.1608 -0.987 0.987 0.1608 -5.666 64.3361)" class="st0" cx="35" cy="35.5" rx="35.22" ry="35.22"/>
	<path class="st1" d="M53.73,26.28c-0.25-2.46-1.19-4.63-3.02-6.37c-1.92-1.83-4.27-2.64-6.84-2.78c-4.39-0.24-14.8-0.39-18.46,0.21
		c-4.18,0.68-6.92,3.12-8.07,7.25c-0.89,3.17-0.71,17.81-0.19,20.95c0.71,4.29,3.24,7.04,7.5,8.14c2.94,0.76,17.41,0.66,20.65,0.14
		c4.29-0.69,7.06-3.22,8.17-7.46C54.32,43.08,54.02,29.22,53.73,26.28z M50.29,44.92c-0.5,3.26-2.66,5.28-5.94,5.64
		c-3.01,0.33-16.45,0.51-19.24-0.27c-2.67-0.75-4.2-2.58-4.64-5.27c-0.42-2.57-0.53-15.4-0.01-18.83c0.49-3.23,2.65-5.25,5.91-5.61
		c3.31-0.37,15.2-0.41,18.37,0.07c3.25,0.5,5.27,2.67,5.63,5.95C50.7,29.66,50.8,41.63,50.29,44.92z M35.37,26
		c-5.28,0-9.57,4.28-9.57,9.56s4.28,9.57,9.56,9.57s9.57-4.28,9.57-9.56C44.94,30.29,40.66,26.01,35.37,26z M35.31,41.75
		c-3.42-0.03-6.16-2.83-6.13-6.24c0.03-3.42,2.83-6.16,6.24-6.13c3.42,0.03,6.16,2.83,6.13,6.24
		C41.52,39.04,38.73,41.78,35.31,41.75z M47.56,25.64c0,1.24-1.01,2.24-2.25,2.23c-1.24,0-2.24-1.01-2.23-2.25
		c0-1.24,1.01-2.24,2.25-2.23C46.56,23.4,47.56,24.41,47.56,25.64z"/>
	<path class="st1" d="M53.73,26.28c-0.25-2.46-1.19-4.63-3.02-6.37c-1.92-1.83-4.27-2.64-6.84-2.78c-4.39-0.24-14.8-0.39-18.46,0.21
		c-4.18,0.68-6.92,3.12-8.07,7.25c-0.89,3.17-0.71,17.81-0.19,20.95c0.71,4.29,3.24,7.04,7.5,8.14c2.94,0.76,17.41,0.66,20.65,0.14
		c4.29-0.69,7.06-3.22,8.17-7.46C54.32,43.08,54.02,29.22,53.73,26.28z M50.29,44.92c-0.5,3.26-2.66,5.28-5.94,5.64
		c-3.01,0.33-16.45,0.51-19.24-0.27c-2.67-0.75-4.2-2.58-4.64-5.27c-0.42-2.57-0.53-15.4-0.01-18.83c0.49-3.23,2.65-5.25,5.91-5.61
		c3.31-0.37,15.2-0.41,18.37,0.07c3.25,0.5,5.27,2.67,5.63,5.95C50.7,29.66,50.8,41.63,50.29,44.92z M35.37,26
		c-5.28,0-9.57,4.28-9.57,9.56s4.28,9.57,9.56,9.57s9.57-4.28,9.57-9.56C44.94,30.29,40.66,26.01,35.37,26z M35.31,41.75
		c-3.42-0.03-6.16-2.83-6.13-6.24c0.03-3.42,2.83-6.16,6.24-6.13c3.42,0.03,6.16,2.83,6.13,6.24
		C41.52,39.04,38.73,41.78,35.31,41.75z M47.56,25.64c0,1.24-1.01,2.24-2.25,2.23c-1.24,0-2.24-1.01-2.23-2.25
		c0-1.24,1.01-2.24,2.25-2.23C46.56,23.4,47.56,24.41,47.56,25.64z"/>
</g>
</svg>
