<?xml version="1.0" encoding="utf-8"?>
<!-- Generator: Adobe Illustrator 25.4.1, SVG Export Plug-In . SVG Version: 6.00 Build 0)  -->
<svg version="1.1" id="Calque_1" xmlns="http://www.w3.org/2000/svg" xmlns:xlink="http://www.w3.org/1999/xlink" x="0px" y="0px"
	 viewBox="0 0 70 70" style="enable-background:new 0 0 70 70;" xml:space="preserve">
<style type="text/css">
	.st0{fill:#F8B133;}
	.st1{fill-rule:evenodd;clip-rule:evenodd;fill:#FFFFFF;}
</style>
<g>
	<circle class="st0" cx="35.11" cy="34.59" r="35.22"/>
	<path class="st1" d="M32.55,42.61c-0.03,0.12-0.07,0.21-0.09,0.31c-1.48,5.81-1.65,7.1-3.17,9.8c-0.73,1.28-1.55,2.5-2.45,3.66
		c-0.1,0.13-0.2,0.3-0.4,0.26c-0.22-0.05-0.24-0.25-0.27-0.43c-0.24-1.77-0.38-3.54-0.32-5.32c0.08-2.32,0.36-3.12,3.36-15.71
		c0.04-0.19-0.01-0.35-0.07-0.53c-0.72-1.93-0.86-3.9-0.23-5.88c1.36-4.29,6.22-4.62,7.08-1.08c0.52,2.19-0.86,5.06-1.93,9.3
		c-0.88,3.5,3.24,5.99,6.76,3.43c3.25-2.35,4.51-8,4.27-12c-0.47-7.98-9.22-9.7-14.77-7.13c-6.36,2.94-7.81,10.83-4.94,14.43
		c0.36,0.46,0.65,0.74,0.52,1.2c-0.19,0.72-0.35,1.45-0.55,2.17c-0.15,0.53-0.6,0.73-1.14,0.51c-1.06-0.43-1.94-1.1-2.66-1.99
		c-2.44-3.02-3.14-8.99,0.09-14.05c3.57-5.6,10.22-7.87,16.29-7.18c7.25,0.82,11.83,5.78,12.68,11.39
		c0.39,2.56,0.11,8.87-3.48,13.33C43,46.23,36.3,46.57,33.21,43.42C32.97,43.18,32.78,42.9,32.55,42.61z"/>
</g>
</svg>
