<?xml version="1.0" encoding="utf-8"?>
<!-- Generator: Adobe Illustrator 25.4.1, SVG Export Plug-In . SVG Version: 6.00 Build 0)  -->
<svg version="1.1" id="Calque_1" xmlns="http://www.w3.org/2000/svg" xmlns:xlink="http://www.w3.org/1999/xlink" x="0px" y="0px"
	 viewBox="0 0 70 70" style="enable-background:new 0 0 70 70;" xml:space="preserve">
<style type="text/css">
	.st0{fill:#F8B133;}
	.st1{fill-rule:evenodd;clip-rule:evenodd;fill:#FFFFFF;}
</style>
<g>
	
		<ellipse transform="matrix(0.1608 -0.987 0.987 0.1608 -4.6772 63.6775)" class="st0" cx="35.11" cy="34.59" rx="35.22" ry="35.22"/>
	<path class="st1" d="M28.68,45.02c-4.3-0.15-6.99-3.24-7.71-5.75c1.2,0.23,2.38,0.18,3.55-0.11c0.03-0.01,0.06-0.03,0.12-0.05
		c-2.33-0.54-4.13-1.79-5.38-3.8c-0.83-1.34-1.23-2.8-1.21-4.4c1.16,0.62,2.38,0.97,3.69,1c-1.75-1.26-2.93-2.91-3.41-5.02
		c-0.48-2.11-0.17-4.11,0.89-6c4.48,5.28,10.16,8.18,17.08,8.65c-0.05-0.33-0.1-0.62-0.13-0.91c-0.23-1.95,0.16-3.77,1.21-5.42
		c1.32-2.07,3.2-3.35,5.62-3.74c2.79-0.46,5.22,0.34,7.25,2.31c0.14,0.13,0.25,0.18,0.44,0.13c1.7-0.37,3.31-0.98,4.82-1.85
		c0.04-0.02,0.07-0.04,0.11-0.06c0.01-0.01,0.02,0,0.06,0c-0.66,1.93-1.85,3.41-3.55,4.51c1.6-0.17,3.13-0.6,4.61-1.24
		c0.01,0.01,0.02,0.03,0.03,0.04c-0.32,0.42-0.62,0.84-0.95,1.24c-0.88,1.08-1.89,2.04-3.01,2.86c-0.09,0.07-0.14,0.14-0.14,0.26
		c0.05,1.23,0,2.46-0.15,3.68c-0.32,2.57-1.04,5.03-2.13,7.37c-1.14,2.42-2.61,4.61-4.48,6.53c-3.15,3.26-6.96,5.37-11.38,6.34
		c-1.52,0.33-3.06,0.5-4.61,0.55c-4.78,0.14-9.19-1.05-13.25-3.56c-0.05-0.03-0.1-0.07-0.19-0.13c2.89,0.31,5.64-0.06,8.28-1.14
		C26.15,46.74,27.45,45.99,28.68,45.02z"/>
</g>
</svg>
