<?xml version="1.0" encoding="utf-8"?>
<!-- Generator: Adobe Illustrator 25.4.1, SVG Export Plug-In . SVG Version: 6.00 Build 0)  -->
<svg version="1.1" id="Calque_1" xmlns="http://www.w3.org/2000/svg" xmlns:xlink="http://www.w3.org/1999/xlink" x="0px" y="0px"
	 viewBox="0 0 70 70" style="enable-background:new 0 0 70 70;" xml:space="preserve">
<style type="text/css">
	.st0{fill:#F8B133;}
	.st1{fill-rule:evenodd;clip-rule:evenodd;fill:#FFFFFF;}
</style>
<g>
	<circle class="st0" cx="35.11" cy="34.59" r="35.22"/>
	<path class="st1" d="M16.51,53.29c0.22-0.84,0.41-1.57,0.6-2.31c0.64-2.34,1.3-4.68,1.91-7.03c0.09-0.35,0.05-0.82-0.12-1.13
		c-5.95-11.34,0.19-25.07,12.68-28c11.34-2.66,21.53,5,23.39,15.23c1.94,10.67-5.05,20.82-15.64,22.67
		c-4.21,0.73-8.24,0.11-12.08-1.76c-0.34-0.17-0.83-0.22-1.19-0.13C20.95,52.12,17.54,53.09,16.51,53.29z M21.01,48.85
		c1.93-0.5,3.7-0.94,5.46-1.44c0.5-0.13,0.88-0.06,1.32,0.19c3.33,1.92,6.9,2.64,10.71,2.02C47.28,48.21,53.3,40,51.96,31.25
		c-1.39-9.07-9.89-15.15-18.88-13.5c-10.87,2-16.63,14.11-11.23,23.7c0.6,1.06,0.76,1.94,0.36,3.07
		C21.73,45.88,21.43,47.3,21.01,48.85z"/>
	<path class="st1" d="M41.01,42.91c-3.78-0.13-9.79-3.12-13.91-10.27c-1.46-2.54-1.25-5.44,0.89-7.44c0.72-0.68,1.63-0.51,2.48-0.37
		c0.21,0.03,0.43,0.35,0.53,0.59c0.55,1.25,1.09,2.5,1.57,3.78c0.25,0.68-0.21,1.31-1.19,2.44c-0.31,0.35-0.38,0.69-0.13,1.1
		c1.58,2.68,3.8,4.62,6.71,5.76c0.43,0.17,0.75,0.06,1.02-0.27c1.54-1.88,1.7-2.44,2.51-2.05c3.91,1.87,4.21,1.94,4.23,2.39
		C45.86,41.86,42.84,43.05,41.01,42.91z"/>
</g>
</svg>
